<svg width="123" height="49" viewBox="0 0 123 49" fill="none" xmlns="http://www.w3.org/2000/svg">
<g id="Logo">
<g id="Logo_2">
<path d="M0.5 37.7831V0H8.56658V31.1969H24.9233V37.7831H0.5Z" fill="#463A1C"/>
<path d="M43.0451 38.3366C40.1514 38.3366 37.6488 37.7278 35.5374 36.5102C33.4385 35.2802 31.8178 33.5707 30.6751 31.3814C29.5325 29.1798 28.9612 26.6278 28.9612 23.7252C28.9612 20.7979 29.5325 18.2397 30.6751 16.0505C31.8178 13.8489 33.4385 12.1393 35.5374 10.9217C37.6488 9.69177 40.1514 9.07681 43.0451 9.07681C45.9389 9.07681 48.4353 9.69177 50.5342 10.9217C52.6455 12.1393 54.2725 13.8489 55.4151 16.0505C56.5577 18.2397 57.1291 20.7979 57.1291 23.7252C57.1291 26.6278 56.5577 29.1798 55.4151 31.3814C54.2725 33.5707 52.6455 35.2802 50.5342 36.5102C48.4353 37.7278 45.9389 38.3366 43.0451 38.3366ZM43.0824 32.2485C44.3989 32.2485 45.498 31.8795 46.3798 31.1416C47.2616 30.3913 47.9261 29.3705 48.3732 28.0791C48.8327 26.7877 49.0625 25.3179 49.0625 23.6698C49.0625 22.0217 48.8327 20.552 48.3732 19.2605C47.9261 17.9691 47.2616 16.9483 46.3798 16.198C45.498 15.4478 44.3989 15.0727 43.0824 15.0727C41.7535 15.0727 40.6357 15.4478 39.7291 16.198C38.8349 16.9483 38.158 17.9691 37.6985 19.2605C37.2514 20.552 37.0278 22.0217 37.0278 23.6698C37.0278 25.3179 37.2514 26.7877 37.6985 28.0791C38.158 29.3705 38.8349 30.3913 39.7291 31.1416C40.6357 31.8795 41.7535 32.2485 43.0824 32.2485Z" fill="#463A1C"/>
<path d="M75.181 49C72.6102 49 70.4057 48.6495 68.5676 47.9484C66.7419 47.2597 65.2888 46.3188 64.2083 45.1258C63.1278 43.9327 62.426 42.5921 62.1031 41.1039L69.4432 40.1261C69.6667 40.6919 70.0207 41.2208 70.505 41.7127C70.9894 42.2047 71.629 42.5983 72.4239 42.8934C73.2312 43.2009 74.2123 43.3547 75.3673 43.3547C77.0937 43.3547 78.5157 42.9365 79.6335 42.1001C80.7637 41.2761 81.3288 39.8924 81.3288 37.9492V32.7651H80.9934C80.6457 33.5522 80.1241 34.2963 79.4286 34.9974C78.7331 35.6984 77.8389 36.2703 76.7459 36.7131C75.653 37.1559 74.3489 37.3773 72.8337 37.3773C70.6851 37.3773 68.729 36.8853 66.9654 35.9014C65.2143 34.9051 63.817 33.3862 62.7738 31.3445C61.743 29.2905 61.2275 26.6954 61.2275 23.5591C61.2275 20.349 61.7554 17.6678 62.811 15.5154C63.8667 13.3631 65.2701 11.7519 67.0213 10.6819C68.7849 9.61182 70.7162 9.07681 72.8151 9.07681C74.4172 9.07681 75.7586 9.34739 76.8391 9.88855C77.9196 10.4174 78.789 11.0816 79.4472 11.881C80.1179 12.6682 80.6333 13.443 80.9934 14.2056H81.2915V9.44578H89.1718V38.0599C89.1718 40.4705 88.5757 42.4876 87.3834 44.1111C86.1911 45.7346 84.5393 46.9522 82.4279 47.7639C80.329 48.588 77.9134 49 75.181 49ZM75.3487 31.4736C76.6279 31.4736 77.7084 31.16 78.5902 30.5328C79.4845 29.8932 80.1675 28.9831 80.6395 27.8023C81.1239 26.6093 81.366 25.1826 81.366 23.5222C81.366 21.8618 81.1301 20.4228 80.6581 19.2052C80.1862 17.9753 79.5031 17.0221 78.6089 16.3456C77.7147 15.6692 76.6279 15.3309 75.3487 15.3309C74.0446 15.3309 72.9455 15.6815 72.0513 16.3825C71.1571 17.0713 70.4802 18.0306 70.0207 19.2605C69.5611 20.4905 69.3314 21.911 69.3314 23.5222C69.3314 25.158 69.5611 26.5724 70.0207 27.7654C70.4926 28.9462 71.1695 29.8624 72.0513 30.5143C72.9455 31.1539 74.0446 31.4736 75.3487 31.4736Z" fill="#463A1C"/>
<path d="M108.416 38.3366C105.522 38.3366 103.02 37.7278 100.908 36.5102C98.8095 35.2802 97.1887 33.5707 96.0461 31.3814C94.9035 29.1798 94.3322 26.6278 94.3322 23.7252C94.3322 20.7979 94.9035 18.2397 96.0461 16.0505C97.1887 13.8489 98.8095 12.1393 100.908 10.9217C103.02 9.69177 105.522 9.07681 108.416 9.07681C111.31 9.07681 113.806 9.69177 115.905 10.9217C118.017 12.1393 119.643 13.8489 120.786 16.0505C121.929 18.2397 122.5 20.7979 122.5 23.7252C122.5 26.6278 121.929 29.1798 120.786 31.3814C119.643 33.5707 118.017 35.2802 115.905 36.5102C113.806 37.7278 111.31 38.3366 108.416 38.3366ZM108.453 32.2485C109.77 32.2485 110.869 31.8795 111.751 31.1416C112.633 30.3913 113.297 29.3705 113.744 28.0791C114.204 26.7877 114.433 25.3179 114.433 23.6698C114.433 22.0217 114.204 20.552 113.744 19.2605C113.297 17.9691 112.633 16.9483 111.751 16.198C110.869 15.4478 109.77 15.0727 108.453 15.0727C107.124 15.0727 106.007 15.4478 105.1 16.198C104.206 16.9483 103.529 17.9691 103.069 19.2605C102.622 20.552 102.399 22.0217 102.399 23.6698C102.399 25.3179 102.622 26.7877 103.069 28.0791C103.529 29.3705 104.206 30.3913 105.1 31.1416C106.007 31.8795 107.124 32.2485 108.453 32.2485Z" fill="#463A1C"/>
</g>
</g>
</svg>
